<svg width="136" height="33" viewBox="0 0 136 33" fill="none" xmlns="http://www.w3.org/2000/svg">
              <path fill-rule="evenodd" clip-rule="evenodd" d="M0 12.6072V32.0232H5.22739V25.478L7.42377 23.8527L14.8915 32.0232H19.9871V30.8811L11.0258 21.2609L19.9871 13.7493V12.6072H14.8915L5.22739 20.1627V12.6072H0ZM21.0853 23.062C21.0853 28.3333 23.4134 32.5943 31.8915 32.5943H32.9457C41.3798 32.5943 43.7519 28.2894 43.7519 23.062V21.5684C43.7519 16.2971 41.4238 12.0361 32.9457 12.0361H31.8915C23.4574 12.0361 21.0853 16.341 21.0853 21.5684V23.062ZM26.3127 22.3152C26.3127 19.372 26.3127 16.6925 32.4186 16.6925C38.5245 16.6925 38.5245 19.372 38.5245 22.3152C38.5245 25.2583 38.5245 27.9818 32.4186 27.9818C26.3127 27.9818 26.3127 25.2583 26.3127 22.3152ZM52.0103 12.6072H46.7829V32.0232H52.0103V19.5477L62.2015 32.0232H67.4289V12.6072H62.2015V25.0826L52.0103 12.6072ZM71.9974 12.6072V32.0232H77.2248V12.6072H71.9974ZM96.8165 22.2713V27.8501C95.4987 27.9819 94.2687 28.0258 93.2584 28.0258C86.3178 28.0258 86.3178 25.6098 86.3178 22.3152C86.3178 19.0206 86.3178 16.6485 93.2584 16.6485C95.4109 16.6485 98.6176 16.956 101.473 17.7028V12.9586C98.9251 12.3436 96.2015 11.9922 93.3902 11.9922H92.3359C83.4625 11.9922 80.9587 16.2971 80.9587 21.5245V23.018C80.9587 28.2893 83.4625 32.5503 92.3359 32.5503H93.3902C96.3333 32.5503 99.3204 32.1989 102.044 31.6279V22.2273H96.8165V22.2713ZM106.085 12.6072V32.0232H111.313V12.6072H106.085ZM120.581 12.6072H115.354V32.0232H120.581V19.5477L130.773 32.0232H136V12.6072H130.773V25.0826L120.581 12.6072Z" fill="white"></path>
              <path fill-rule="evenodd" clip-rule="evenodd" d="M23.2812 7.02842H41.5991V9.62015H23.2812V7.02842ZM23.2812 0.52713L28.7722 5.79845H23.2812V0.52713ZM35.9324 5.79845L41.5551 0.439276L41.5991 0.4832V5.75452H35.9324V5.79845ZM32.3743 0L28.7722 5.79845H35.9324L32.3743 0Z" fill="#FF6400"></path>
            </svg>