<?xml version="1.0" encoding="utf-8"?>
<!-- Generator: Adobe Illustrator 26.0.3, SVG Export Plug-In . SVG Version: 6.00 Build 0)  -->
<svg version="1.1" id="Слой_1" xmlns="http://www.w3.org/2000/svg" xmlns:xlink="http://www.w3.org/1999/xlink" x="0px" y="0px"
	 viewBox="0 0 2000 368.57" style="enable-background:new 0 0 2000 368.57;" xml:space="preserve">
<style type="text/css">
	.st0{fill:#1E1E1E;}
	.st1{fill:#FFFFFF;}
	.st2{fill:#C50034;}
	.st3{fill:#E2A803;}
</style>
<g>
	<g>
		<g>
			<path class="st1" d="M1593.79,83.03h-62.2c-4.82,0-7.21,2.4-7.21,6.76v142.12L1348.75,85.78c-1.09-1.79-3.06-2.75-5.79-2.75
				h-62.21c-4.79,0-7.23,2.4-7.23,6.76v188.98c0,4.38,2.44,6.77,7.23,6.77h62.21c4.33,0,6.74-2.39,6.74-6.77V136.25l175.35,145.88
				c1.01,2.21,3.18,3.41,6.54,3.41h62.2c4.33,0,6.75-2.39,6.75-6.77V89.79C1600.55,85.43,1598.12,83.03,1593.79,83.03z"/>
			<path class="st1" d="M672.02,195.49c5.39-2.52,10.51-5.56,15.3-9.3c14.51-11.54,21.71-26.02,21.71-42.89
				c0-16.39-7.2-30.38-21.71-42.43c-14.93-12.06-32.76-17.84-53.51-17.84H377.13c-4.82,0-7.25,2.4-7.25,6.76v188.98
				c0,4.38,2.43,6.77,7.25,6.77h62.2c4.33,0,6.73-2.39,6.73-6.77v-75.21h2.15h121.44c17.37,0,32.3,6.26,44.35,18.83
				c12.56,12.05,18.8,26.98,18.8,44.32v17.39h69.03c4.8,0,7.2-2.41,7.2-6.71v-15.55l-0.14-0.02
				C707.48,236.04,695.07,214.05,672.02,195.49z M446.06,165.46v-44.35h161.72c6.26,0,11.57,2.41,15.92,6.77
				c4.33,4.33,6.29,9.64,6.29,15.41c0,6.26-1.96,11.59-6.29,15.92c-4.35,4.34-9.65,6.25-15.92,6.25H446.06z"/>
			<path class="st1" d="M1998.56,280.24L1855.85,88.8c-2.41-3.86-6.28-5.78-10.61-5.78h-62.21c-4.84,0-8.67,1.92-11.1,5.78
				l-139.34,191.44c-2.43,3.38-1.44,5.31,2.9,5.31h37.59c4.85,0,8.66-1.94,11.11-5.31l32.79-45.31h157.18l34.23,45.31
				c2.44,3.38,6.29,5.31,10.61,5.31h77.16C2000.51,285.55,2000.95,283.62,1998.56,280.24z M1744.89,196.83l50.19-68.51l50.84,68.51
				H1744.89z"/>
			<path class="st1" d="M337.03,263.48c0-27.94-12.53-51.57-37.12-71.34c-18.62-15.01-40.32-24.41-65.06-28.11l88.94-74.45
				c0-4.34-2.43-6.75-7.25-6.75h-80.84l-95.26,79.4H76.17l0.05-79h-69c-4.81,0-7.23,2.4-7.23,6.75v188.99
				c0,4.38,2.42,6.75,7.23,6.75h69l-0.05-85.41h121.49c17.34,0,32.31,6.23,44.38,18.79c12.53,12.06,18.78,27.01,18.78,44.36v22.26
				h69.01c4.8,0,7.22-2.38,7.22-6.75v-15.5H337.03z"/>
			<g>
				<path class="st2" d="M825.47,275.63c-20.06-39.76-23.83-84.73-10.64-126.65c13.18-41.9,41.75-75.71,80.43-95.22
					c79.85-40.3,178.52-6.29,219.91,75.77c21.76,43.14,24.13,93.38,6.51,137.84l2.77,1.25c26.69-52.32,26.88-114.81,0.48-167.16
					c-45.83-90.9-157.09-127.53-247.99-81.72c-44.04,22.21-76.78,60.23-92.22,107.07c-15.44,46.84-11.7,96.89,10.5,140.92
					c29.06,57.62,84.86,95.32,149.27,100.84l0.4-3.02C893.02,356.04,849.49,323.26,825.47,275.63z"/>
				<path class="st3" d="M1197.89,112.33c-23.75-57.93-74.84-98.63-136.67-108.87l-0.63,2.98c49.4,13.14,88.97,48.13,108.58,96
					c33.79,82.45-3.98,176.26-84.17,209.11c-80.22,32.86-172.93-7.51-206.7-89.96c-17.75-43.35-16.26-92.08,4.11-133.71l-2.67-1.46
					c-29.75,48.57-34.65,108.98-13.09,161.6c18.13,44.27,52.41,78.84,96.51,97.32c22.29,9.34,45.73,14.02,69.18,14.02
					c22.96,0,45.93-4.48,67.8-13.44C1191.47,308.51,1235.31,203.73,1197.89,112.33z"/>
			</g>
		</g>
	</g>
</g>
</svg>
